<?xml version="1.0" encoding="UTF-8"?> <svg xmlns="http://www.w3.org/2000/svg" viewBox="0 0 48 48"><title>11-Process</title><g id="_11-Process" data-name="11-Process"><path d="M30,48H22a1,1,0,0,1-1-1V41.276a17.809,17.809,0,0,1-3.679-1.526L13.272,43.8a1,1,0,0,1-1.414,0L6.2,38.142a1,1,0,0,1,0-1.414l4.049-4.049A17.787,17.787,0,0,1,8.724,29H3a1,1,0,0,1-1-1V20a1,1,0,0,1,1-1H8.724a17.809,17.809,0,0,1,1.526-3.679L6.2,11.272a1,1,0,0,1,0-1.414L11.858,4.2a1,1,0,0,1,1.414,0L17.321,8.25A17.787,17.787,0,0,1,21,6.724V1a1,1,0,0,1,1-1h8a1,1,0,0,1,1,1V5H29V2H23V7.493a1,1,0,0,1-.765.972,15.842,15.842,0,0,0-4.555,1.889,1,1,0,0,1-1.229-.146L12.565,6.322,8.322,10.565l3.886,3.886a1,1,0,0,1,.146,1.228,15.9,15.9,0,0,0-1.889,4.556A1,1,0,0,1,9.493,21H4v6H9.493a1,1,0,0,1,.972.765,15.842,15.842,0,0,0,1.889,4.555,1,1,0,0,1-.146,1.229L8.322,37.435l4.243,4.243,3.886-3.886a1,1,0,0,1,1.228-.146,15.9,15.9,0,0,0,4.556,1.889,1,1,0,0,1,.765.972V46h6V42h2v5A1,1,0,0,1,30,48Z"></path><path d="M40,48H36a1,1,0,0,1-1-1V44h2v2h2V44h2v3A1,1,0,0,1,40,48Z"></path><path d="M42,45H34a1,1,0,0,1-1-1V33H31a1,1,0,0,1-1-1V28a1,1,0,0,1,1-1H45a1,1,0,0,1,1,1v4a1,1,0,0,1-1,1H43V44A1,1,0,0,1,42,45Zm-7-2h6V32a1,1,0,0,1,1-1h2V29H32v2h2a1,1,0,0,1,1,1Z"></path><rect x="34" y="31" width="5" height="2"></rect><path d="M40,29H36a1,1,0,0,1-1-1V7.731A2,2,0,0,1,34,6V2a2,2,0,0,1,2-2h4a2,2,0,0,1,2,2V6a2,2,0,0,1-1,1.731V28A1,1,0,0,1,40,29Zm-3-2h2V7a1,1,0,0,1,1-1V2H36V6a1,1,0,0,1,1,1Z"></path><rect x="37" y="35" width="2" height="2"></rect><rect x="37" y="39" width="2" height="2"></rect><path d="M26,33a9,9,0,1,1,5.882-15.812L30.575,18.7A7,7,0,1,0,26,31Z"></path><path d="M26,28a4,4,0,1,1,4-4A4,4,0,0,1,26,28Zm0-6a2,2,0,1,0,2,2A2,2,0,0,0,26,22Z"></path></g></svg> 